<?xml version="1.0" encoding="UTF-8" standalone="no"?>
<svg
   xmlns:dc="http://purl.org/dc/elements/1.1/"
   xmlns:cc="http://creativecommons.org/ns#"
   xmlns:rdf="http://www.w3.org/1999/02/22-rdf-syntax-ns#"
   xmlns:svg="http://www.w3.org/2000/svg"
   xmlns="http://www.w3.org/2000/svg"
   xmlns:sodipodi="http://sodipodi.sourceforge.net/DTD/sodipodi-0.dtd"
   xmlns:inkscape="http://www.inkscape.org/namespaces/inkscape"
   version="1.1"
   id="svg2"
   xml:space="preserve"
   width="874"
   height="231.96001"
   viewBox="0 0 874 231.96001"
   sodipodi:docname="GG_logo-horizontal.eps"><metadata
     id="metadata8"><rdf:RDF><cc:Work
         rdf:about=""><dc:format>image/svg+xml</dc:format><dc:type
           rdf:resource="http://purl.org/dc/dcmitype/StillImage" /></cc:Work></rdf:RDF></metadata><defs
     id="defs6" /><sodipodi:namedview
     pagecolor="#ffffff"
     bordercolor="#666666"
     borderopacity="1"
     objecttolerance="10"
     gridtolerance="10"
     guidetolerance="10"
     inkscape:pageopacity="0"
     inkscape:pageshadow="2"
     inkscape:window-width="640"
     inkscape:window-height="480"
     id="namedview4" /><g
     id="g10"
     inkscape:groupmode="layer"
     inkscape:label="ink_ext_XXXXXX"
     transform="matrix(1.3333333,0,0,-1.3333333,0,231.96)"><g
       id="g12"
       transform="scale(0.1)"><path
         d="m 447.004,1118.03 c 21.637,36.78 47.887,70.47 77.984,100.31 L 269.277,1498.71 C 204.941,1437.25 150.09,1365.98 106.941,1287.43 l 340.063,-169.4"
         style="fill:#58c039;fill-opacity:1;fill-rule:nonzero;stroke:none"
         id="path14" /><path
         d="m 1073.84,1316.11 c 38.73,-17.73 74.72,-40.37 107.23,-67.18 l 256.44,279.96 c -67.55,58.24 -144.13,106.31 -227.26,141.78 l -136.41,-354.56"
         style="fill:#ddb02d;fill-opacity:1;fill-rule:nonzero;stroke:none"
         id="path16" /><path
         d="m 1661.08,1231.8 -339.86,-169.41 c 16.23,-37.9 27.77,-78.128 34.04,-120.105 l 378.06,35.688 c -11.16,89.527 -35.94,174.867 -72.24,253.827"
         style="fill:#c71d37;fill-opacity:1;fill-rule:nonzero;stroke:none"
         id="path18" /><path
         d="m 1296.85,1111.51 339.82,169.37 c -42.11,78.24 -95.78,149.28 -158.81,210.84 l -256.42,-279.9 c 29.19,-29.98 54.6,-63.67 75.41,-100.31"
         style="fill:#48aa3c;fill-opacity:1;fill-rule:nonzero;stroke:none"
         id="path20" /><path
         d="m 379.465,869.98 c 0,7.637 0.262,15.293 0.594,22.891 L 1.90234,926.723 C 0.722656,907.973 0,889.066 0,869.98 0,797.465 9.00391,726.988 25.7422,659.648 L 390.965,764.414 c -7.481,34.027 -11.5,69.316 -11.5,105.566"
         style="fill:#3c8147;fill-opacity:1;fill-rule:nonzero;stroke:none"
         id="path22" /><path
         d="m 1249.25,559.18 c -26.88,-32.711 -57.89,-61.871 -92.22,-86.758 L 1356.69,149.16 c 74.1,50.199 140.07,111.531 195.51,181.578 L 1249.25,559.18"
         style="fill:#f9bb1a;fill-opacity:1;fill-rule:nonzero;stroke:none"
         id="path24" /><path
         d="m 1360.54,869.98 c 0,-35.796 -3.85,-70.703 -11.24,-104.332 l 365.18,-104.929 c 16.64,67.062 25.52,137.176 25.52,209.261 0,17.915 -0.6,35.708 -1.7,53.403 L 1360.19,887.68 c 0.22,-5.918 0.35,-11.782 0.35,-17.7"
         style="fill:#f03934;fill-opacity:1;fill-rule:nonzero;stroke:none"
         id="path26" /><path
         d="M 496.883,551.961 194.637,322.25 C 250.848,253.031 317.43,192.699 392.02,143.422 l 199.609,322.93 c -35.156,24.32 -67.031,53.136 -94.746,85.609"
         style="fill:#f79028;fill-opacity:1;fill-rule:nonzero;stroke:none"
         id="path28" /><path
         d="m 385.594,947.426 c 6.769,42.715 19.14,83.574 36.222,121.834 L 82.0898,1238.5 C 44.5586,1158.64 18.8086,1072.15 7.09766,981.367 L 385.594,947.426"
         style="fill:#4498d9;fill-opacity:1;fill-rule:nonzero;stroke:none"
         id="path30" /><path
         d="m 1310.24,119.898 -199.36,322.864 c -36.22,-20.453 -75.25,-36.512 -116.36,-47.293 l 70.36,-373.4377 c 87.55,20.1171 170.07,53.5 245.36,97.8667"
         style="fill:#9d1646;fill-opacity:1;fill-rule:nonzero;stroke:none"
         id="path32" /><path
         d="m 1334.76,712.781 c -13.23,-38.851 -31.12,-75.492 -53.09,-109.301 l 303.2,-228.691 c 49.25,70.781 88.19,149.18 114.76,233.121 l -364.87,104.871"
         style="fill:#51c6e2;fill-opacity:1;fill-rule:nonzero;stroke:none"
         id="path34" /><path
         d="m 940.754,384.57 c -23.07,-3.34 -46.711,-5.129 -70.754,-5.129 -19.309,0 -38.391,1.188 -57.102,3.368 L 742.578,9.33984 C 784.188,3.23828 826.719,0 870,0 c 48.016,0 95.137,3.94922 141.03,11.4492 L 940.754,384.57"
         style="fill:#f25c30;fill-opacity:1;fill-rule:nonzero;stroke:none"
         id="path36" /><path
         d="m 901.367,1359.55 c 42.137,-2.71 82.821,-10.7 121.393,-23.44 l 136.38,354.48 c -81.14,28.65 -167.714,45.61 -257.773,48.77 v -379.81"
         style="fill:#ee2042;fill-opacity:1;fill-rule:nonzero;stroke:none"
         id="path38" /><path
         d="M 758.84,392.148 C 716.316,402.07 675.906,417.5 638.426,437.68 L 438.68,114.609 C 515.527,70.6289 599.543,38.0703 688.594,19.0781 L 758.84,392.148"
         style="fill:#e21270;fill-opacity:1;fill-rule:nonzero;stroke:none"
         id="path40" /><path
         d="m 722.578,1337.86 c 39.387,12.46 80.945,20.05 123.914,22.07 v 379.74 c -91.269,-2.44 -178.984,-19.06 -261.23,-47.58 l 137.316,-354.23"
         style="fill:#23476b;fill-opacity:1;fill-rule:nonzero;stroke:none"
         id="path42" /><path
         d="m 463.613,595.59 c -24.082,35.582 -43.75,74.57 -57.859,115.988 L 40.7891,606.859 C 68.4258,519.809 109.383,438.711 161.34,365.879 L 463.613,595.59"
         style="fill:#be9029;fill-opacity:1;fill-rule:nonzero;stroke:none"
         id="path44" /><path
         d="m 566.086,1254.75 c 32.059,25.41 67.34,46.8 105.191,63.65 l -137.246,354.05 c -81.746,-34.32 -157.058,-80.79 -223.847,-137.09 l 255.902,-280.61"
         style="fill:#2e6ba5;fill-opacity:1;fill-rule:nonzero;stroke:none"
         id="path46" /><path
         d="m 3193.36,889.848 h 141.08 V 575.02 h -71.37 v 64.32 c -13.19,-44.281 -41.02,-71.231 -95,-71.231 -85.3,0 -124.43,67.75 -124.43,159.039 v 285.282 c 0,92.1 44.36,159.14 148.92,159.14 109.64,0 141.88,-60.9 141.88,-147.92 v -52.103 h -90.57 v 60.023 c 0,36.52 -13.99,57.32 -49.71,57.32 -35.65,0 -51.17,-25.21 -51.17,-60.88 V 711.559 c 0,-35.661 14.71,-60.84 48.7,-60.84 32.17,0 48.69,18.23 48.69,56.453 v 104.336 h -47.02 v 78.34"
         style="fill:#050707;fill-opacity:1;fill-rule:nonzero;stroke:none"
         id="path48" /><path
         d="m 3382.33,1164.48 h 99.28 V 655.859 h 118.34 V 575.02 h -217.62 v 589.46"
         style="fill:#050707;fill-opacity:1;fill-rule:nonzero;stroke:none"
         id="path50" /><path
         d="m 3833.42,711.559 v 316.451 c 0,35.67 -15.72,60.92 -51.52,60.92 -34.78,0 -50.5,-25.25 -50.5,-60.92 V 711.559 c 0,-35.661 15.72,-60.911 50.5,-60.911 35.8,0 51.52,25.25 51.52,60.911 m -201.29,15.589 v 285.282 c 0,92.1 45.35,158.98 149.77,158.98 105.37,0 150.66,-66.88 150.66,-158.98 V 727.148 c 0,-91.289 -45.29,-159.039 -150.66,-159.039 -104.42,0 -149.77,67.75 -149.77,159.039"
         style="fill:#050707;fill-opacity:1;fill-rule:nonzero;stroke:none"
         id="path52" /><path
         d="M 4079.66,840.234 V 655.859 h 43.55 c 33.11,0 48.76,16.563 48.76,47.871 v 88.633 c 0,31.274 -14.77,47.871 -49.63,47.871 z m 0,75.664 h 34.85 c 32.32,0 47.1,16.528 47.1,47.793 v 72.189 c 0,32.21 -14.78,47.76 -47.9,47.76 h -34.05 z m -99.21,248.582 h 143.63 c 99.34,0 132.38,-46.02 132.38,-129.44 v -60.036 c 0,-49.516 -18.33,-80.922 -59.19,-93.969 49.57,-11.305 73.98,-44.273 73.98,-98.238 V 704.57 c 0,-83.492 -37.39,-129.55 -136.67,-129.55 h -154.13 v 589.46"
         style="fill:#050707;fill-opacity:1;fill-rule:nonzero;stroke:none"
         id="path54" /><path
         d="m 4416.61,761.992 h 79.21 l -39.07,236.406 h -0.93 z m -124.49,-186.972 111.45,589.46 h 113.26 L 4629.14,575.02 H 4527.2 l -18.33,107.769 h -105.3 L 4386.18,575.02 h -94.06"
         style="fill:#050707;fill-opacity:1;fill-rule:nonzero;stroke:none"
         id="path56" /><path
         d="m 4661.39,1164.48 h 99.27 V 655.859 h 118.33 V 575.02 h -217.6 v 589.46"
         style="fill:#050707;fill-opacity:1;fill-rule:nonzero;stroke:none"
         id="path58" /><path
         d="m 5148.06,889.848 h 141.01 V 575.02 h -71.38 v 64.32 c -13.11,-44.281 -40.94,-71.231 -94.93,-71.231 -85.35,0 -124.49,67.75 -124.49,159.039 v 285.282 c 0,92.1 44.36,159.14 148.85,159.14 109.71,0 141.95,-60.9 141.95,-147.92 v -52.103 h -90.51 v 60.023 c 0,36.52 -14.05,57.32 -49.77,57.32 -35.66,0 -51.31,-25.21 -51.31,-60.88 V 711.559 c 0,-35.661 14.79,-60.84 48.84,-60.84 32.18,0 48.7,18.23 48.7,56.453 v 104.336 h -46.96 v 78.34"
         style="fill:#050707;fill-opacity:1;fill-rule:nonzero;stroke:none"
         id="path60" /><path
         d="m 5538.12,711.559 v 316.451 c 0,35.67 -15.79,60.92 -51.37,60.92 -34.92,0 -50.65,-25.25 -50.65,-60.92 V 711.559 c 0,-35.661 15.73,-60.911 50.65,-60.911 35.58,0 51.37,25.25 51.37,60.911 m -201.15,15.589 v 285.282 c 0,92.1 45.22,158.98 149.78,158.98 105.29,0 150.52,-66.88 150.52,-158.98 V 727.148 c 0,-91.289 -45.23,-159.039 -150.52,-159.039 -104.56,0 -149.78,67.75 -149.78,159.039"
         style="fill:#050707;fill-opacity:1;fill-rule:nonzero;stroke:none"
         id="path62" /><path
         d="m 5781.02,761.992 h 79.2 l -39.2,236.406 h -0.86 z m -124.56,-186.972 111.45,589.46 h 113.25 l 112.33,-589.46 h -101.96 l -18.26,107.769 H 5767.91 L 5750.45,575.02 h -93.99"
         style="fill:#050707;fill-opacity:1;fill-rule:nonzero;stroke:none"
         id="path64" /><path
         d="m 6025.6,1164.48 h 99.2 V 655.859 h 118.54 V 575.02 H 6025.6 v 589.46"
         style="fill:#050707;fill-opacity:1;fill-rule:nonzero;stroke:none"
         id="path66" /><path
         d="m 6270.3,701.941 v 79.196 h 92.25 v -80.918 c 0,-33.071 14.92,-52.149 48.84,-52.149 31.29,0 45.21,20.879 45.21,52.149 v 22.609 c 0,33.988 -13.92,54.789 -44.41,83.485 l -58.4,58.242 c -56.53,55.664 -82.62,89.566 -82.62,157.355 v 20.04 c 0,73.05 42.68,129.6 139.28,129.6 99.27,0 138.47,-48.82 138.47,-133.97 v -47.908 h -90.58 v 51.388 c 0,33.9 -15.66,50.46 -46.95,50.46 -27.97,0 -47.1,-15.68 -47.1,-48.72 v -12.11 c 0,-33.112 18.33,-52.17 47.1,-80.002 l 63.54,-62.583 c 53.92,-54.824 80.08,-87.91 80.08,-153.105 v -28.691 c 0,-80.879 -43.49,-138.2 -144.56,-138.2 -101.02,0 -140.15,56.442 -140.15,133.832"
         style="fill:#050707;fill-opacity:1;fill-rule:nonzero;stroke:none"
         id="path68" /><path
         d="m 2035.46,1164.48 h 263.77 v -80.84 h -81.89 V 575.02 h -100.07 v 508.62 h -81.81 v 80.84"
         style="fill:#050707;fill-opacity:1;fill-rule:nonzero;stroke:none"
         id="path70" /><path
         d="M 2531.62,834.941 H 2435.9 V 575.02 h -99.21 v 589.46 h 99.21 V 914.965 h 95.72 v 249.515 h 100.15 V 575.02 h -100.15 v 259.921"
         style="fill:#050707;fill-opacity:1;fill-rule:nonzero;stroke:none"
         id="path72" /><path
         d="m 2679.67,1164.48 h 236.87 v -80.84 H 2779 V 914.965 h 98.34 V 834.941 H 2779 V 655.859 h 137.54 V 575.02 h -236.87 v 589.46"
         style="fill:#050707;fill-opacity:1;fill-rule:nonzero;stroke:none"
         id="path74" /></g></g></svg>
